<svg width="24" height="24" viewBox="0 0 24 24" fill="none" xmlns="http://www.w3.org/2000/svg">
<mask id="mask0_29_18" style="mask-type:alpha" maskUnits="userSpaceOnUse" x="0" y="0" width="24" height="24">
<rect width="24" height="24" fill="#D9D9D9"/>
</mask>
<g mask="url(#mask0_29_18)">
<circle cx="12" cy="12" r="10" fill="#8A8A8A"/>
<path d="M10.5628 14.1877C10.5628 12.1657 11.1342 11.5524 12.1558 10.9392C12.8831 10.4917 13.4372 9.99449 13.4372 9.24866C13.4372 8.41997 12.7792 7.90618 11.9481 7.88961C11.1688 7.90618 10.4416 8.4034 10.3896 9.34811H8C8.05195 7.07749 9.81818 5.98361 11.9827 6.00019C14.3377 5.98361 16 7.16036 16 9.14922C16 10.4917 15.29 11.337 14.1645 11.9668C13.2294 12.5137 12.7965 13.0441 12.7792 14.1877V14.3534H10.5628V14.1877ZM10.3203 16.6406C10.2857 15.9114 10.9437 15.2981 11.7403 15.3147C12.4848 15.2981 13.1429 15.9114 13.1602 16.6406C13.1429 17.403 12.4848 18.0162 11.7403 17.9997C10.9437 18.0162 10.2857 17.403 10.3203 16.6406Z" fill="white"/>
</g>
</svg>
