<svg width="207" height="40" viewBox="0 0 207 40" fill="none" xmlns="http://www.w3.org/2000/svg">
<path d="M164.523 15.0146C164.523 11.0342 161.285 7.80829 157.29 7.80829C153.295 7.80829 150.057 11.0342 150.057 15.0146C150.057 18.9951 153.295 22.221 157.29 22.221C161.285 22.221 164.523 18.9951 164.523 15.0146ZM157.294 16.9816C156.205 16.9816 155.32 16.0998 155.32 15.0146C155.32 13.9295 156.205 13.0477 157.294 13.0477C158.383 13.0477 159.268 13.9295 159.268 15.0146C159.268 16.0998 158.383 16.9816 157.294 16.9816Z" fill="black"/>
<path d="M164.522 2.60277H159.821V0H154.592V2.60277H150.061V7.81254H157.294H164.522V2.60277Z" fill="black"/>
<path d="M166.965 22.3948H161.736V34.7177H176.197V29.5122H166.965V22.3948Z" fill="black"/>
<path d="M168.356 7.81252H170.973V10.4153H168.356V15.6251H170.973V22.3948H176.197V2.60275H168.356V7.81252Z" fill="black"/>
<path d="M193.934 7.88081C189.939 7.88081 186.701 11.1067 186.701 15.0872C186.701 19.0676 189.939 22.2935 193.934 22.2935C197.929 22.2935 201.167 19.0676 201.167 15.0872C201.167 11.1067 197.929 7.88081 193.934 7.88081ZM193.934 17.0499C192.845 17.0499 191.96 16.1681 191.96 15.0829C191.96 13.9977 192.845 13.116 193.934 13.116C195.023 13.116 195.908 13.9977 195.908 15.0829C195.908 16.1681 195.023 17.0499 193.934 17.0499Z" fill="black"/>
<path d="M180.864 30.2756H191.322V40H196.546V30.2756H207V25.0701H180.864V30.2756Z" fill="black"/>
<path d="M118.572 15.0147C118.572 18.9951 121.81 22.221 125.805 22.221C129.8 22.221 133.038 18.9951 133.038 15.0147C133.038 11.0342 129.8 7.8083 125.805 7.8083C121.81 7.8083 118.572 11.0384 118.572 15.0147ZM125.805 13.0181C126.912 13.0181 127.809 13.9125 127.809 15.0147C127.809 16.1168 126.912 17.0113 125.805 17.0113C124.699 17.0113 123.801 16.1168 123.801 15.0147C123.801 13.9125 124.699 13.0181 125.805 13.0181Z" fill="black"/>
<path d="M131.915 24.9976H128.418V22.3948H123.189V24.9976H118.572V30.2074H130.273C130.583 33.9038 133.689 36.8033 137.476 36.8033C141.471 36.8033 144.709 33.5774 144.709 29.5969C144.709 25.6165 141.471 22.3906 137.476 22.3906C135.238 22.3906 133.238 23.4037 131.911 24.9933L131.915 24.9976ZM137.476 27.6004C138.582 27.6004 139.48 28.4948 139.48 29.5969C139.48 30.6991 138.582 31.5935 137.476 31.5935C136.37 31.5935 135.472 30.6991 135.472 29.5969C135.472 28.4948 136.37 27.6004 137.476 27.6004Z" fill="black"/>
<path d="M136.868 22.3948H137.476H142.097V7.81254H144.709V2.60276H136.868V22.3948Z" fill="black"/>
<path d="M133.034 2.60277H128.418V0H123.189V2.60277H118.572V7.81255H125.805H133.034V2.60277Z" fill="black"/>
<path d="M14.4616 20.0382H5.22898V15.8712H14.4616V10.6657H0V25.248H14.4616V20.0382Z" fill="black"/>
<path d="M23.524 5.45594H18.295V25.248H23.524V5.45594Z" fill="black"/>
<path d="M46.6588 25.248H51.8877V10.6657H54.5001V5.45594H46.6588V25.248Z" fill="black"/>
<path d="M32.895 17.5753L28.3765 20.9072L31.4867 25.0954L35.5967 22.0645L39.7024 25.0954L42.8126 20.9072L38.124 17.4482V15.8755H42.8254V10.6657H28.3638V15.8755H32.895V17.5753Z" fill="black"/>
<path d="M64.0993 10.6657C60.1042 10.6657 56.8664 13.8916 56.8664 17.8721C56.8664 21.8525 60.1042 25.0784 64.0993 25.0784C68.0944 25.0784 71.3322 21.8525 71.3322 17.8721C71.3322 13.8916 68.0944 10.6657 64.0993 10.6657ZM64.0993 19.8644C62.9931 19.8644 62.0954 18.97 62.0954 17.8678C62.0954 16.7657 62.9931 15.8713 64.0993 15.8713C65.2055 15.8713 66.1033 16.7657 66.1033 17.8678C66.1033 18.97 65.2055 19.8644 64.0993 19.8644Z" fill="black"/>
<path d="M80.3905 5.45595H75.1615V25.248H80.3905V5.45595Z" fill="black"/>
<path d="M99.7655 20.0382H90.5286V10.6657H85.2996V25.248H99.7655V20.0382Z" fill="black"/>
<path d="M108.824 5.45595V25.248H103.599V11.3228H100.65V5.45595H108.824Z" fill="black"/>
</svg>
