<svg width="528" height="340" viewBox="0 0 528 340" fill="none" xmlns="http://www.w3.org/2000/svg">
<path d="M136.625 249.466C136.625 236.823 126.319 226.577 113.603 226.577C100.887 226.577 90.582 236.823 90.582 249.466C90.582 262.109 100.887 272.355 113.603 272.355C126.319 272.355 136.625 262.109 136.625 249.466ZM113.617 255.714C110.15 255.714 107.333 252.913 107.333 249.466C107.333 246.019 110.15 243.219 113.617 243.219C117.084 243.219 119.9 246.019 119.9 249.466C119.9 252.913 117.084 255.714 113.617 255.714Z" fill="black"/>
<path d="M136.625 210.043H121.661V201.776H105.018V210.043H90.5956V226.59H113.617H136.625V210.043Z" fill="black"/>
<path d="M144.398 272.907H127.755V312.048H173.784V295.514H144.398V272.907Z" fill="black"/>
<path d="M148.826 226.59H157.154V234.857H148.826V251.405H157.154V272.907H173.784V210.043H148.826V226.59Z" fill="black"/>
<path d="M222.535 224.45C209.819 224.45 199.513 234.696 199.513 247.339C199.513 259.982 209.819 270.228 222.535 270.228C235.25 270.228 245.556 259.982 245.556 247.339C245.556 234.696 235.25 224.45 222.535 224.45ZM222.535 253.573C219.068 253.573 216.251 250.772 216.251 247.325C216.251 243.879 219.068 241.078 222.535 241.078C226.001 241.078 228.818 243.879 228.818 247.325C228.818 250.772 226.001 253.573 222.535 253.573Z" fill="black"/>
<path d="M180.934 295.581H214.22V326.468H230.849V295.581H264.122V279.047H180.934V295.581Z" fill="black"/>
<path d="M317.355 270.82C317.355 258.178 307.05 247.931 294.334 247.931C281.618 247.931 271.313 258.178 271.313 270.82C271.313 283.463 281.618 293.71 294.334 293.71C307.05 293.71 317.355 283.463 317.355 270.82ZM294.334 277.162C290.813 277.162 287.956 274.321 287.956 270.82C287.956 267.32 290.813 264.479 294.334 264.479C297.855 264.479 300.712 267.32 300.712 270.82C300.712 274.321 297.855 277.162 294.334 277.162Z" fill="black"/>
<path d="M346.2 230.832H329.556V293.696H337.871V301.29H325.115V293.696H308.472V332.85H354.501V293.696H346.186V230.832H346.2ZM325.115 316.303V312.991H337.871V316.303H325.115Z" fill="black"/>
<path d="M444.812 294.235H490.841V277.687H461.441V264.452H490.841V247.918H444.812V294.235Z" fill="black"/>
<path d="M503.042 294.235H519.672V247.918H528V231.37H503.042V294.235Z" fill="black"/>
<path d="M58.2303 62.8782H74.8734V16.5611H83.1881V0H58.2303V62.8782Z" fill="black"/>
<path d="M53.8021 62.8782H46.0426V16.5611H0V62.8782H37.1591V102.032H83.1881V85.4847H53.7886V62.8782H53.8021ZM29.3995 46.3306H16.643V33.0952H29.3995V46.3306Z" fill="black"/>
<path d="M239.164 16.5745H247.492V24.8551H239.164V41.3892H247.492V62.8917H264.122V0.0404053H239.164V16.5745Z" fill="black"/>
<path d="M234.736 62.8916H226.976V16.5745H180.947V63.4437H218.106V102.046H264.135V85.4982H234.736V62.8916ZM210.333 46.9095H197.577V33.1221H210.333V46.9095Z" fill="black"/>
<path d="M383.86 62.8782H400.503V16.5611H354.46V33.0952H383.86V62.8782Z" fill="black"/>
<path d="M437.662 16.3726H421.019V79.2373H437.662V16.3726Z" fill="black"/>
<path d="M317.315 192.849H287.915V163.079H271.272V209.396H317.315V192.849Z" fill="black"/>
<path d="M378.294 247.918H361.664V294.235H407.693V277.687H378.294V247.918Z" fill="black"/>
<path d="M436.538 231.37H419.895V294.235H436.538V231.37Z" fill="black"/>
<path d="M444.812 60.3065V76.8541H463.378V118.082H509.42V101.534H480.021V76.8541H492.777V91.611H509.42V76.8541H528V60.3065H444.812Z" fill="black"/>
<path d="M486.399 55.217C499.115 55.217 509.421 44.9707 509.421 32.3278C509.421 19.6848 499.115 9.43848 486.399 9.43848C473.683 9.43848 463.378 19.6848 463.378 32.3278C463.378 44.9707 473.683 55.217 486.399 55.217ZM486.399 25.9861C489.92 25.9861 492.778 28.827 492.778 32.3278C492.778 35.8285 489.92 38.6694 486.399 38.6694C482.878 38.6694 480.021 35.8285 480.021 32.3278C480.021 28.827 482.878 25.9861 486.399 25.9861Z" fill="black"/>
<path d="M46.029 171.521H16.643V158.286H46.029V141.752H0V188.069H46.029V171.521Z" fill="black"/>
<path d="M74.8734 125.204H58.2303V188.069H74.8734V125.204Z" fill="black"/>
<path d="M148.826 166.028H165.469V119.711H173.784V103.163H148.826V166.028Z" fill="black"/>
<path d="M105.018 141.658L90.6362 152.241L100.535 165.543L113.617 155.916L126.685 165.543L136.584 152.241L121.661 141.254V136.259H136.625V119.711H90.5956V136.259H105.018V141.658Z" fill="black"/>
<path d="M203.996 148.861C191.28 148.861 180.974 159.107 180.974 171.75C180.974 184.393 191.28 194.64 203.996 194.64C216.712 194.64 227.017 184.393 227.017 171.75C227.017 159.107 216.712 148.861 203.996 148.861ZM203.996 178.079C200.475 178.079 197.617 175.238 197.617 171.737C197.617 168.236 200.475 165.395 203.996 165.395C207.517 165.395 210.374 168.236 210.374 171.737C210.374 175.238 207.517 178.079 203.996 178.079Z" fill="black"/>
<path d="M255.848 132.313H239.205V195.178H255.848V132.313Z" fill="black"/>
<path d="M293.467 56.523L312.873 47.2192L332.278 56.523L339.496 41.6181L321.675 33.0817H335.894V16.5341H289.852V33.0817H304.071L286.249 41.6181L293.467 56.523Z" fill="black"/>
<path d="M289.852 125.164H335.894V108.428H318.858L335.894 97.6834V79.3989H289.852V96.1484H306.887L289.852 106.879V125.164Z" fill="black"/>
<path d="M354.46 59.5525H271.272V76.1001H354.46V59.5525Z" fill="black"/>
<path d="M0 270.794C0 283.437 10.3054 293.683 23.0213 293.683C35.7372 293.683 46.0426 283.437 46.0426 270.794C46.0426 258.151 35.7372 247.904 23.0213 247.904C10.3054 247.904 0 258.164 0 270.794ZM23.0213 264.452C26.5422 264.452 29.3995 267.293 29.3995 270.794C29.3995 274.294 26.5422 277.135 23.0213 277.135C19.5004 277.135 16.643 274.294 16.643 270.794C16.643 267.293 19.5004 264.452 23.0213 264.452Z" fill="black"/>
<path d="M42.4675 302.502H31.336V294.235H14.693V302.502H0V319.05H37.2403C38.2289 330.79 48.1145 340 60.1668 340C72.8827 340 83.1881 329.754 83.1881 317.111C83.1881 304.468 72.8827 294.221 60.1668 294.221C53.0438 294.221 46.6791 297.439 42.454 302.489L42.4675 302.502ZM60.1668 310.769C63.6877 310.769 66.5451 313.61 66.5451 317.111C66.5451 320.611 63.6877 323.452 60.1668 323.452C56.6459 323.452 53.7886 320.611 53.7886 317.111C53.7886 313.61 56.6459 310.769 60.1668 310.769Z" fill="black"/>
<path d="M58.2303 294.235H60.1668H74.8734V247.918H83.1881V231.37H58.2303V294.235Z" fill="black"/>
<path d="M46.029 231.37H31.336V223.103H14.693V231.37H0V247.918H23.0213H46.029V231.37Z" fill="black"/>
<path d="M136.625 46.3171H107.239V16.5476H90.5956V62.8647H136.625V46.3171Z" fill="black"/>
<path d="M148.826 62.8647H165.469V16.5476H173.784V0H148.826V62.8647Z" fill="black"/>
<path d="M421.019 16.3726H411.648V35.0071H421.019V16.3726Z" fill="black"/>
<path d="M346.145 146.532V209.396H329.516V165.166H320.131V146.532H346.145Z" fill="black"/>
</svg>
