<svg width="138" height="89" viewBox="0 0 138 89" fill="none" xmlns="http://www.w3.org/2000/svg">
<g clip-path="url(#clip0_1_85)">
<path d="M15.3099 16.7039H19.6827V4.39451H21.8708V0H15.3099V16.7039Z" fill="black"/>
<path d="M14.1411 16.7039H12.0991V4.3945H0V16.7039H9.76832V27.108H21.8708V22.7135H14.1445V16.7073L14.1411 16.7039ZM7.72632 12.3094H4.37281V8.79243H7.72632V12.3094Z" fill="black"/>
<path d="M63.3055 4.39451H65.4936V6.59348H63.3055V10.988H65.4936V16.7039H69.8665V0H63.3055V4.39451Z" fill="black"/>
<path d="M62.1401 16.7039H60.0981V4.3945H47.9956V16.8507H57.7639V27.108H69.8664V22.7135H62.1401V16.7073V16.7039ZM55.7253 12.4562H52.3718V8.79243H55.7253V12.4562Z" fill="black"/>
<path d="M101.594 16.7039H105.967V4.3945H93.8676V8.79243H101.594V16.7039Z" fill="black"/>
<path d="M87.3066 80.3134H91.6794V68.0074H93.8676V63.6095H87.3066V80.3134Z" fill="black"/>
<path d="M71.9967 72.4087H79.723V80.3202H84.0992V68.0108H71.9967V72.4087Z" fill="black"/>
<path d="M111.362 16.7039H115.735V0H111.362V4.39451H108.301V8.79244H111.362V16.7039Z" fill="black"/>
<path d="M83.9158 52.5839H76.186V44.6724H71.8132V56.9818H83.9158V52.5839Z" fill="black"/>
<path d="M91.496 56.9819V40.2779H87.1232H84.7958V44.6724H87.1232V56.9819H91.496Z" fill="black"/>
<path d="M116.129 18.1961V22.594H121.015V33.5479H133.114V29.1499H125.388V22.594H128.741V26.5139H133.114V22.594H138V18.1961H116.129Z" fill="black"/>
<path d="M127.066 16.8439C130.41 16.8439 133.118 14.1225 133.118 10.7626C133.118 7.40272 130.41 4.68134 127.066 4.68134C123.723 4.68134 121.015 7.40272 121.015 10.7626C121.015 14.1225 123.723 16.8439 127.066 16.8439ZM127.066 9.07585C127.99 9.07585 128.741 9.83046 128.741 10.7592C128.741 11.688 127.99 12.4426 127.066 12.4426C126.142 12.4426 125.391 11.688 125.391 10.7592C125.391 9.83046 126.142 9.07585 127.066 9.07585Z" fill="black"/>
<path d="M99.7557 53.0995H111.858V48.7016H104.132V44.488H116.741V40.0935H94.8733V44.488H99.7557V53.0995Z" fill="black"/>
<path d="M12.1025 46.4309H4.37281V42.914H12.1025V38.5194H0V50.8254H12.1025V46.4309Z" fill="black"/>
<path d="M19.6827 34.1215H15.3099V50.8255H19.6827V34.1215Z" fill="black"/>
<path d="M42.9874 32.5781H45.1755V28.1836H38.6112V44.8876H42.9874V32.5781Z" fill="black"/>
<path d="M27.0931 38.4102L23.3149 41.2203L25.9175 44.7544L29.3559 42.2003L32.791 44.7544L35.3936 41.2203L31.4693 38.3043V36.9761H35.4038V32.5781H23.3047V36.9761H27.0931V38.4102Z" fill="black"/>
<path d="M53.8293 51.1942C57.1726 51.1942 59.8806 48.4728 59.8806 45.1129C59.8806 41.753 57.1726 39.0316 53.8293 39.0316C50.486 39.0316 47.7781 41.753 47.7781 45.1129C47.7781 48.4728 50.486 51.1942 53.8293 51.1942ZM53.8293 43.4295C54.7535 43.4295 55.5044 44.1842 55.5044 45.1129C55.5044 46.0417 54.7535 46.7963 53.8293 46.7963C52.9052 46.7963 52.1543 46.0417 52.1543 45.1129C52.1543 44.1842 52.9052 43.4295 53.8293 43.4295Z" fill="black"/>
<path d="M67.4608 34.6371H63.088V51.341H67.4608V34.6371Z" fill="black"/>
<path d="M77.8306 15.0137L82.9305 12.5416L88.0338 15.0137L89.9297 11.0529L85.2443 8.78562H88.9818V4.3877H76.8792V8.78562H80.6167L75.9313 11.0529L77.8306 15.0137Z" fill="black"/>
<path d="M76.8792 33.2542H88.9817V28.8051H84.5035L88.9817 25.9505V21.0916H76.8792V25.5408H81.3573L76.8792 28.3953V33.2542Z" fill="black"/>
<path d="M93.8675 15.8162H71.9967V20.2107H93.8675V15.8162Z" fill="black"/>
<path d="M36.1003 12.3094H28.374V4.3945H23.9978V16.7039H36.1003V12.3094Z" fill="black"/>
<path d="M43.6805 4.39451H45.8687V0H39.3077V16.7039H43.6805V4.39451Z" fill="black"/>
<path d="M99.7557 27.1627V38.0072H111.858V33.6127H104.132V27.1627H99.7557Z" fill="black"/>
<path d="M0 80.7949H8.74902V89H13.1218V80.7949H21.8708V76.4004H0V80.7949Z" fill="black"/>
<path d="M4.88586 74.2014H16.9884V61.892H4.88586V74.2014ZM9.25867 66.2899H12.6122V69.8069H9.25867V66.2899Z" fill="black"/>
<path d="M61.9226 75.9462H57.5498V86.3503H69.6489V81.9524H61.9226V75.9462Z" fill="black"/>
<path d="M67.4608 59.2423H63.088V75.9462H67.4608V59.2423Z" fill="black"/>
<path d="M59.8806 69.7181C59.8806 66.3582 57.1726 63.6368 53.8293 63.6368C50.486 63.6368 47.7781 66.3582 47.7781 69.7181C47.7781 73.078 50.486 75.7994 53.8293 75.7994C57.1726 75.7994 59.8806 73.078 59.8806 69.7181ZM53.8293 71.4049C52.9052 71.4049 52.1543 70.6502 52.1543 69.7215C52.1543 68.7927 52.9052 68.0381 53.8293 68.0381C54.7535 68.0381 55.5044 68.7927 55.5044 69.7215C55.5044 70.6502 54.7535 71.4049 53.8293 71.4049Z" fill="black"/>
<path d="M106.901 58.1189C103.558 58.1189 100.85 60.8403 100.85 64.2002C100.85 67.5601 103.558 70.2815 106.901 70.2815C110.244 70.2815 112.952 67.5601 112.952 64.2002C112.952 60.8403 110.244 58.1189 106.901 58.1189ZM106.901 65.8836C105.977 65.8836 105.226 65.1289 105.226 64.2002C105.226 63.2714 105.977 62.5168 106.901 62.5168C107.825 62.5168 108.576 63.2714 108.576 64.2002C108.576 65.1289 107.825 65.8836 106.901 65.8836Z" fill="black"/>
<path d="M35.2543 62.2949C35.2543 58.935 32.5463 56.2136 29.203 56.2136C25.8597 56.2136 23.1517 58.935 23.1517 62.2949C23.1517 65.6548 25.8597 68.3762 29.203 68.3762C32.5463 68.3762 35.2543 65.6548 35.2543 62.2949ZM29.2064 63.9817C28.2822 63.9817 27.5313 63.2271 27.5313 62.2983C27.5313 61.3695 28.2822 60.6149 29.2064 60.6149C30.1306 60.6149 30.8814 61.3695 30.8814 62.2983C30.8814 63.2271 30.1306 63.9817 29.2064 63.9817Z" fill="black"/>
<path d="M41.1662 68.523H42.8379V51.8191H38.4617V56.2136H36.277V60.6115H38.4617V68.523H36.79V72.0912L31.4523 76.9706L34.3947 80.2246L38.9781 76.035L43.5616 80.2246L46.504 76.9706L41.1662 72.0912V68.523Z" fill="black"/>
<path d="M112.993 70.2815H108.617V76.4345H105.185V70.2815H100.809V76.4345H95.9674V80.829H117.835V76.4345H112.993V70.2815Z" fill="black"/>
<path d="M120.675 60.7788H132.166V65.7606H126.625V73.6107H130.997V70.1586H136.539V56.3843H120.675V60.7788Z" fill="black"/>
<path d="M130.997 76.5301H126.625V80.8529H130.997V76.5301Z" fill="black"/>
</g>
<defs>
<clipPath id="clip0_1_85">
<rect width="138" height="89" fill="white"/>
</clipPath>
</defs>
</svg>
