<svg width="23" height="32" viewBox="0 0 23 32" fill="none" xmlns="http://www.w3.org/2000/svg">
<path d="M0 13.0798C0 16.5473 2.84926 19.3576 6.36497 19.3576C9.88068 19.3576 12.7299 16.5473 12.7299 13.0798C12.7299 9.6123 9.88068 6.80209 6.36497 6.80209C2.84926 6.80209 0 9.61599 0 13.0798ZM6.36497 11.3405C7.33843 11.3405 8.12844 12.1197 8.12844 13.0798C8.12844 14.0399 7.33843 14.8191 6.36497 14.8191C5.3915 14.8191 4.6015 14.0399 4.6015 13.0798C4.6015 12.1197 5.3915 11.3405 6.36497 11.3405Z" fill="black"/>
<path d="M11.7415 21.7156H8.66384V19.4482H4.06235V21.7156H0V26.254H10.2963C10.5696 29.4741 13.3028 32 16.635 32C20.1507 32 23 29.1898 23 25.7223C23 22.2548 20.1507 19.4445 16.635 19.4445C14.6656 19.4445 12.9059 20.3271 11.7377 21.7119L11.7415 21.7156ZM16.635 23.983C17.6085 23.983 18.3985 24.7622 18.3985 25.7223C18.3985 26.6824 17.6085 27.4616 16.635 27.4616C15.6616 27.4616 14.8716 26.6824 14.8716 25.7223C14.8716 24.7622 15.6616 23.983 16.635 23.983Z" fill="black"/>
<path d="M16.0996 19.509H16.635H20.7011V6.8058H23V2.26736H16.0996V19.509Z" fill="black"/>
<path d="M12.7262 2.26737H8.66384V0H4.06235V2.26737H0V6.8058H6.36497H12.7262V2.26737Z" fill="black"/>
</svg>
